<svg width="240" height="31" fill="none" xmlns="http://www.w3.org/2000/svg"><g clip-path="url(#a)" fill="#2C2D86"><path d="M96.552 26.81h-22.08L80.99 5.978l-1.6-2.419h12.918L86.722 21.34h11.554l-1.715 5.47h-.009Zm7.853-23.25h12.998l-7.247 23.245H99.679l6.432-20.678-1.706-2.594v.027Zm28.285 0 6.522 13.571 3.514-11.238-1.568-2.355h12.388l-7.252 23.249h-10.806l-7.203-12.915-4.044 12.946h-9.457l6.437-20.56-1.782-2.698h13.251Zm44.455 0H190l-7.256 23.25h-10.379l2.802-8.942-10.851.032-2.77 8.914h-10.214l6.379-20.467-1.849-2.787h12.918l-2.82 8.99h10.837l2.005-6.432-1.671-2.567.014.01Zm37.505 0 5.141 23.222h-11.136l-.218-2.697h-11.996L194 26.782h-10.089l18.557-20.255-1.982-2.994h14.178l-.014.027Zm-7.02 8.307-6.681 7.278h6.681v-7.278Zm18.499-8.325H240l-7.256 23.24h-10.985l6.326-20.277-1.956-2.972v.01Z"/><path fill-rule="evenodd" clip-rule="evenodd" d="M32.681 0c18.05 0 32.682 6.801 32.682 15.185 0 8.383-14.633 15.18-32.681 15.18C14.631 30.365 0 23.568 0 15.185 0 6.8 14.637 0 32.681 0Zm8.139 2.535c5.345.207 10.432 2.127 12.886 3.551 1.653.958 2.343 1.799 1.011 1.799-5.39.071-8.223.499-12.588 4.265-7.439 6.424-20.405 16.25-19.376 11.396.445-2.077 7.657-11.912 1.024-14.385-1.064-.4-4.187-.742-7.287.35a8.775 8.775 0 0 0-2.935 1.732c-3.978 3.227-7.747 7.156-7.8 5.92C5.679 15.544 9.59 8.945 17.39 5.997 23.95 3.52 33.66 2.252 40.82 2.53v.004Zm15.95 13.648c2.228 6.19-17.26 10.725-19.75 11.004-5.955.67-11.688.85-10.833.112.205-.175 8.57-3.2 14.575-8.923 2.454-2.337 13.728-8.473 16.009-2.193ZM18.05 22.606c-.94 2.22.762 4.19-.272 4.495-2.886-.265-9.091-3.12-11.42-6.482-.5-.719 9.077-8.505 13.924-8.253 4.74.248-1.337 8.163-2.227 10.245l-.005-.005Z"/></g><defs><clipPath id="a"><path fill="#fff" d="M0 0h240v30.365H0z"/></clipPath></defs></svg>