<svg width="199" height="80" fill="none" xmlns="http://www.w3.org/2000/svg"><g clip-path="url(#a)"><path d="M188.108 26.349c5.075 4.736 7.701 10.612 7.399 17.596-.292 6.774-3.289 12.27-8.449 16.613-4.675 3.94-10.492 5.829-16.29 5.829-8.144 0-16.252-3.734-21.128-10.78-2.605-3.763-3.852-7.97-3.962-12.644.239-8.65 4.285-15.249 11.686-19.774a25.231 25.231 0 0 1 13.165-3.637c6.4.003 12.791 2.327 17.579 6.797Zm-15.15 29.75c6.664-1.39 10.073-8.458 9.728-13.448-.226-3.707-.93-5.995-2.583-8.385-2.32-3.354-5.82-5.113-9.349-5.113a10.864 10.864 0 0 0-7.233 2.803c-5.723 5.06-6.274 14.744-1.124 20.425 2.286 2.518 4.998 3.97 8.19 3.97a11.565 11.565 0 0 0 2.371-.251Z" fill="url(#b)"/><path d="m153.771 20.67-49.414 56.424-16.528-.018 10.149-11.878H62.26l4.165-6.995 15.512.03 3.22-25.103L55.69 65.44H39.542L29.317 47.951 22.722 65.9H4.045l15.417-45.466H39.29l-5.28 14.49c.27-.167 34.797-21.047 51.967-31.42.5.387.682.546.682.546L45.345 46.075l6.038 10.816h2.37s18.853-21.542 25.008-28.436c3.029-3.387 6.793-5.662 11.297-6.538 1.336-.26 2.745-.237 4.12-.257 2.812-.036 8.483-.04 9.743-.04h.25l-5.834 43.161 6.751-7.91 5.112-36.185h8.809l-2.407 22.375 19.607-22.391h17.562Z" fill="url(#c)"/><path d="M196.47 33.18a24.759 24.759 0 0 1 1.91 10.887c-.317 7.378-3.506 13.656-9.466 18.684-4.986 4.197-11.43 6.509-18.146 6.509-9.504 0-18.285-4.497-23.494-12.02a24.69 24.69 0 0 1-3.299-6.765 27.406 27.406 0 0 1-1.168-7.44v-.154c.053-2.135.345-4.258.871-6.328l-37.161 42.43-.86.982h-1.3l-16.527-.02h-6.222l4.035-4.725 6.105-7.143H57.209l.072-.118-.324.353H37.884l-.835-1.424-7.141-12.22-4.49 12.227-.692 1.873H.036L1.32 64.98l15.417-45.466.667-1.95h25.99l-1.403 3.85-2.489 6.828C50.553 21.575 72.08 8.56 84.491 1.062l1.7-1.027 1.563 1.222c.511.4.727.578.763.61l2.37 1.998-2.173 2.21-39.81 40.478 3.925 7.03c4.308-4.918 18.609-21.24 23.785-27.036 3.55-3.972 7.888-6.477 12.897-7.446 1.424-.277 2.838-.29 4.1-.303h.527c2.847-.039 8.648-.04 9.783-.04h3.541l.242-.936h14.515l-.333 3.175-1.434 13.324 13.609-15.54.858-.983h25.191l-1.168 1.333a28.396 28.396 0 0 1 11.597-2.445c3.56-.004 7.091.643 10.417 1.908a27.75 27.75 0 0 1 9.127 5.663c2.843 2.658 4.995 5.662 6.387 8.923Zm-.963 10.765c.302-6.984-2.324-12.86-7.399-17.596-4.788-4.47-11.185-6.794-17.577-6.794a25.226 25.226 0 0 0-13.165 3.637c-7.403 4.526-11.449 11.124-11.686 19.774.11 4.675 1.357 8.882 3.961 12.644 4.877 7.046 12.985 10.78 21.128 10.78 5.798 0 11.613-1.892 16.291-5.829 5.158-4.347 8.155-9.842 8.447-16.616Zm-91.15 33.142 49.414-56.424h-17.558L116.605 43.06l2.408-22.375H110.2l-5.112 36.185-6.751 7.91 5.834-43.16h-.25c-1.26 0-6.931 0-9.743.04-1.375.02-2.78 0-4.12.256-4.507.872-8.268 3.15-11.297 6.538-6.155 6.893-25.007 28.436-25.007 28.436h-2.371l-6.038-10.816L86.66 4.062s-.187-.167-.683-.546C68.807 13.889 34.28 34.772 34.01 34.936l5.28-14.49H19.463L4.045 65.912h18.677l6.591-17.961 10.225 17.486h16.149L85.159 33.13l-3.22 25.1-15.513-.027-4.165 6.995h35.717L87.83 77.076l16.527.011Zm-24.95-21.732 1.745-13.565-12.354 13.543 10.61.022Z" fill="#000"/><path d="M182.686 42.651c.345 4.996-3.064 12.058-9.728 13.448a11.56 11.56 0 0 1-2.364.252c-3.192 0-5.905-1.452-8.19-3.97-5.15-5.681-4.599-15.365 1.123-20.425a10.868 10.868 0 0 1 7.234-2.803c3.522 0 7.022 1.759 9.349 5.113 1.646 2.39 2.35 4.678 2.576 8.385ZM172.369 53.29c5.187-1.082 7.696-6.86 7.447-10.44v-.026c-.192-3.174-.738-4.987-2.078-6.928-1.703-2.461-4.246-3.873-6.975-3.873-1.945 0-3.787.72-5.327 2.081-2.161 1.91-3.506 4.83-3.673 7.994-.167 3.165.835 6.217 2.776 8.357 1.846 2.037 3.828 3.026 6.057 3.026a8.77 8.77 0 0 0 1.773-.191Z" fill="#000"/><path d="M196.47 33.18c-1.392-3.26-3.544-6.265-6.396-8.927a27.745 27.745 0 0 0-9.126-5.662 29.203 29.203 0 0 0-10.417-1.909 28.402 28.402 0 0 0-11.598 2.445l1.169-1.332h-25.195l-.858.983-13.609 15.54 1.434-13.324.334-3.176h-14.511l-.242.936h-3.534c-1.135 0-6.936 0-9.783.04h-.527c-1.254.014-2.671.027-4.1.303-5.009.97-9.35 3.474-12.897 7.446C71.44 32.34 57.137 48.662 52.83 53.58l-3.925-7.03 39.81-40.475 2.17-2.208-2.37-1.998c-.037-.032-.252-.21-.763-.61L86.187.037 84.49 1.063C72.084 8.557 50.557 21.576 39.507 28.257l2.489-6.828 1.402-3.85h-26l-.667 1.95L1.314 64.995.028 68.783h24.698l.69-1.883 4.488-12.228 7.142 12.221.835 1.424H56.954l.324-.353-.072.118h34.542l-6.105 7.132-4.035 4.724h6.221l16.528.02h1.309l.859-.982 37.148-42.423a28.582 28.582 0 0 0-.871 6.328v.148a27.368 27.368 0 0 0 1.168 7.441 24.69 24.69 0 0 0 3.299 6.765c5.209 7.526 13.99 12.02 23.494 12.02 6.716 0 13.16-2.312 18.146-6.509 5.965-5.021 9.149-11.306 9.466-18.684a24.75 24.75 0 0 0-1.905-10.882Z" stroke="#1D1D1B" stroke-width=".42" stroke-linecap="round" stroke-linejoin="round"/><path d="m104.357 77.094-16.528-.018 10.149-11.878H62.26l4.165-6.995 15.512.03 3.22-25.103L55.69 65.44H39.542L29.317 47.951 22.722 65.9H4.045l15.417-45.466H39.29l-5.28 14.49c.27-.167 34.797-21.047 51.967-31.42.5.387.682.546.682.546L45.345 46.075l6.038 10.816h2.37s18.853-21.542 25.008-28.436c3.029-3.387 6.793-5.662 11.297-6.538 1.336-.26 2.745-.237 4.12-.257 2.812-.036 8.483-.04 9.743-.04h.25l-5.834 43.161 6.751-7.91 5.112-36.185h8.809l-2.407 22.375 19.607-22.391h17.562l-49.414 56.424Z" stroke="#1D1D1B" stroke-width=".42" stroke-linecap="round" stroke-linejoin="round"/><path d="M68.79 55.333 81.143 41.79l-1.736 13.566-10.617-.022ZM195.507 43.945c-.292 6.774-3.289 12.27-8.449 16.613-4.675 3.94-10.492 5.829-16.29 5.829-8.144 0-16.252-3.734-21.128-10.78-2.605-3.763-3.852-7.97-3.962-12.644.239-8.65 4.285-15.249 11.686-19.774a25.231 25.231 0 0 1 13.165-3.637c6.399 0 12.789 2.323 17.577 6.793 5.077 4.74 7.703 10.616 7.401 17.6Z" stroke="#1D1D1B" stroke-width=".42" stroke-linecap="round" stroke-linejoin="round"/><path d="M180.103 34.266c-2.32-3.354-5.82-5.113-9.349-5.113a10.863 10.863 0 0 0-7.233 2.803c-5.723 5.06-6.274 14.744-1.124 20.425 2.286 2.518 4.998 3.97 8.19 3.97a11.56 11.56 0 0 0 2.364-.252c6.665-1.39 10.074-8.458 9.728-13.448-.219-3.707-.923-5.995-2.576-8.385Z" stroke="#1D1D1B" stroke-width=".42" stroke-linecap="round" stroke-linejoin="round"/><path d="M172.369 53.29a8.774 8.774 0 0 1-1.775.192c-2.229 0-4.21-.99-6.057-3.026-1.939-2.14-2.953-5.187-2.776-8.358.177-3.17 1.513-6.083 3.673-7.993 1.541-1.361 3.382-2.082 5.327-2.082 2.729 0 5.272 1.412 6.975 3.873 1.335 1.94 1.886 3.754 2.078 6.929v.025c.251 3.58-2.258 9.358-7.445 10.44Z" stroke="#1D1D1B" stroke-width=".42" stroke-linecap="round" stroke-linejoin="round"/></g><defs><linearGradient id="b" x1="170.604" y1="65.971" x2="170.604" y2="26.945" gradientUnits="userSpaceOnUse"><stop stop-color="#E63A2E"/><stop offset="1" stop-color="#ED7E0B"/></linearGradient><linearGradient id="c" x1="75.543" y1="71.067" x2="81.862" y2="18.613" gradientUnits="userSpaceOnUse"><stop stop-color="#E63A2E"/><stop offset="1" stop-color="#ED7E0B"/></linearGradient><clipPath id="a"><path fill="#fff" d="M0 0h198.442v80H0z"/></clipPath></defs></svg>