<svg width="240" height="53" fill="none" xmlns="http://www.w3.org/2000/svg"><g clip-path="url(#a)" fill="#48217A"><path d="M26.126 0C11.698 0 0 11.697 0 26.128c0 14.428 11.698 26.128 26.126 26.128 14.43 0 26.128-11.7 26.128-26.128C52.254 11.697 40.556 0 26.126 0Zm0 49.306c-12.8 0-23.18-10.378-23.18-23.178 0-12.803 10.378-23.18 23.18-23.18s23.18 10.377 23.18 23.18c0 12.8-10.378 23.178-23.18 23.178Z"/><path d="m45.116 36.65-3.793-4.43a.655.655 0 0 0-.776-.16 2.02 2.02 0 0 1-2.852-1.451 5.115 5.115 0 0 0-2.478-3.5l-1.699-.98 9.659-5.576-1.196-2.072-10.853 6.266-1.305-.752v-1.507l10.853-6.266-1.195-2.07-9.658 5.576v-1.961a5.12 5.12 0 0 0-1.792-3.897 2.019 2.019 0 0 1 .168-3.197.651.651 0 0 0 .25-.752l-1.938-5.499a.403.403 0 0 0-.765 0l-1.938 5.5a.655.655 0 0 0 .248.752 2.022 2.022 0 0 1 .169 3.196 5.118 5.118 0 0 0-1.792 3.897v1.96l-9.658-5.576-1.196 2.07 10.854 6.267v1.508l-1.304.751-10.854-6.266-1.194 2.072 9.658 5.576-1.7.98a5.113 5.113 0 0 0-2.477 3.5 2.022 2.022 0 0 1-2.852 1.452.655.655 0 0 0-.776.159L7.14 36.648a.407.407 0 0 0-.047.47.409.409 0 0 0 .43.195l5.732-1.073a.655.655 0 0 0 .526-.592 2.021 2.021 0 0 1 2.685-1.744c1.364.48 2.92.383 4.27-.398l1.699-.978v11.151h2.39V31.146l1.305-.753 1.305.753V43.68h2.391V32.527l1.698.978c1.35.781 2.907.878 4.27.398a2.019 2.019 0 0 1 2.685 1.744.654.654 0 0 0 .526.592l5.731 1.074a.41.41 0 0 0 .43-.195.409.409 0 0 0-.05-.468Zm-22.684-6.883-3.188 1.84a1.303 1.303 0 1 1-1.303-2.26l3.188-1.84 1.304.753v1.507Zm2.39-12.339a1.305 1.305 0 1 1 2.61 0v3.68l-1.304.752-1.305-.752v-3.68Zm2.806 9.566-1.5.865-1.502-.866V25.26l1.502-.867 1.5.867v1.734Zm7.164 4.136c-.36.623-1.16.837-1.783.478l-3.187-1.841V28.26l1.304-.754 3.187 1.84c.624.36.838 1.157.479 1.783ZM200.085 20.82h-8.72V3.387H183.4v45.481h7.965V28.895h8.72v19.973h8.139V3.387h-8.139V20.82ZM58.07 3.387l8.84 27.888v17.593h8.848V30.371l9.164-26.984h-7.446L71.46 21.106l-5.445-17.72H58.07ZM134.893 3.387l-3.815 21.635-4.425-21.635h-12.435v45.481h7.13V14.584l6.086 29.804h6.659L139.49 14.1v34.768h8.362V3.387h-12.959ZM232.495 3.387h-12.318l-8.312 45.481h7.371l1.763-10.583h9.168l1.71 10.583h8.122l-7.504-45.481Zm-10.232 27.316 3.389-20.341 3.29 20.341h-6.679ZM159.805 3.387l-8.314 45.481h7.372l1.765-10.583h9.168l1.71 10.583h8.121l-7.506-45.481h-12.316Zm2.085 27.316 3.39-20.341 3.29 20.341h-6.68ZM90.621 3.387l-8.314 45.481h7.374l1.764-10.583h9.168l1.71 10.583h8.119l-7.504-45.481H90.621Zm2.087 27.316 3.389-20.341 3.289 20.341h-6.678Z"/></g><defs><clipPath id="a"><path fill="#fff" d="M0 0h240v52.256H0z"/></clipPath></defs></svg>