<svg width="120" height="110" fill="none" xmlns="http://www.w3.org/2000/svg"><path d="M10.91 0H120l-10.909 109.091H0L10.91 0Z" fill="#FDCC0A"/><path d="m27.554 66.45 15.518-11.907-15.518-11.908a9.967 9.967 0 0 1-.281-.225v24.265c.092-.077.186-.152.281-.225Zm60.775 2.957L72.02 56.892l-12.943 9.93-12.943-9.93-16.31 12.515a6.562 6.562 0 0 0-2.478 4.227h63.462a6.562 6.562 0 0 0-2.478-4.227Zm2.269-26.772L75.08 54.543 90.598 66.45c.095.073.189.149.281.225V42.41c-.092.077-.186.152-.281.225Z" fill="#1C1C1C"/><path d="m29.823 39.68 29.253 22.448L88.329 39.68a6.562 6.562 0 0 0 2.478-4.227H27.344a6.562 6.562 0 0 0 2.478 4.227Z" fill="#1C1C1C"/></svg>