<svg width="120" height="109" fill="none" xmlns="http://www.w3.org/2000/svg"><path d="M10.9 0h109L109 109H0L10.9 0Z" fill="#FDCC0A"/><g clip-path="url(#a)"><path d="M59.95 27.25c-10.43 0-18.913 8.485-18.913 18.914 0 10.038 17.16 33.492 17.89 34.485l.682.928a.422.422 0 0 0 .683 0l.681-.928c.731-.993 17.89-24.447 17.89-34.485 0-10.429-8.485-18.914-18.914-18.914Zm0 12.139a6.782 6.782 0 0 1 6.774 6.775 6.783 6.783 0 0 1-6.775 6.775c-3.734 0-6.775-3.04-6.775-6.775a6.783 6.783 0 0 1 6.775-6.775Z" fill="#1C1C1C"/></g><defs><clipPath id="a"><path fill="#fff" transform="translate(32.7 27.25)" d="M0 0h54.5v54.5H0z"/></clipPath></defs></svg>