<svg width="120" height="110" fill="none" xmlns="http://www.w3.org/2000/svg"><path d="M10.91 0H120l-10.909 109.091H0L10.91 0Z" fill="#FDCC0A"/><g clip-path="url(#a)"><path d="m87.064 75.085-2.61 2.61a13.779 13.779 0 0 1-6.107 3.6c-2.307.626-4.74.626-7.046 0a45.566 45.566 0 0 1-13.415-5.845 59.92 59.92 0 0 1-10.44-8.56 60.596 60.596 0 0 1-7.933-9.605 46.973 46.973 0 0 1-6.16-12.057 13.83 13.83 0 0 1 0-7.569 13.465 13.465 0 0 1 3.759-6.628l3.08-3.08a2.19 2.19 0 0 1 3.131 0l9.761 9.76a2.193 2.193 0 0 1 0 3.133l-5.742 5.741a4.75 4.75 0 0 0-.47 6.107 66.915 66.915 0 0 0 6.89 7.986 62.639 62.639 0 0 0 9.03 7.62 4.697 4.697 0 0 0 6.003-.521l5.585-5.637a2.14 2.14 0 0 1 3.08 0l9.76 9.813a2.193 2.193 0 0 1-.156 3.132Z" fill="#1C1C1C"/></g><defs><clipPath id="a"><path fill="#fff" transform="translate(32.727 27.273)" d="M0 0h55.015v54.545H0z"/></clipPath></defs></svg>